<?xml version="1.0" encoding="UTF-8"?>
<svg id="Layer_2" data-name="Layer 2" xmlns="http://www.w3.org/2000/svg" viewBox="0 0 96.61 57.72">
  <defs>
    <style>
      .cls-1 {
        fill: #e6b84c;
      }
    </style>
  </defs>
  <g id="Layer_1-2" data-name="Layer 1">
    <path class="cls-1" d="M96.6,28.13l-.66-.14c-3.43-2.81-7.06-6.42-11.1-8.33-6.25-2.96-7.53,1.03-10.95,4.89-3.77,4.24-7.73,7.05-13.26,8.5-4.34,1.14-8.68,1.05-13.1.56l-1.59,2.66c.29,2.53,2.37,4.39,4.01,6.16,3.68,3.95,7.73,8.32,12.46,10.91,1.46.01,2.93.08,4.38.03.58-.02,1.39-.27,1.94-.25.28.01,1.84.45,1.43.86l-.37.12c1.11-.03,2.26.02,3.3.44.32.13,1.08.4.8.8l-1.27-.11c-.07.31-.15.33-.44.36-1.95.25-5.03-.31-7.1-.38-.75-.03-1.52.03-2.27,0-.03.18.21.16.34.21.76.26,3.57.73,3.76,1.52-.07.53-.83.12-1.11.14-.18.01-.33.21-.6.24-1.72.2-4.7-1.11-6-2.23-.65-.56-1.45-1.4-1.9-2.1l-.25.07c-.06.38-.85,1.63-1.28,1.16-.12-.13.34-1.75.42-2.04,0-.27-.52-.86-.73-1.11-2.5-3.12-6.23-7.07-9.18-9.78-.79-.72-1.94-1.45-2.64-2.16-1.86-1.88.99-4.09,1.41-6.06l-2.93-.56c-.46.15-2.58,1.88-2.76,2.29-.14.32-.03.77-.09,1.14-.09.52-.5.98-.62,1.47-.24,1,.16,3.69.3,4.85.36,2.98.92,6.53,1.71,9.41.22.8.73,2.71,1.41,3.15.78.5,3.53.44,4.52.39,1.41-.07,3.81-.72,5.04-.15.19.09.32.32.49.37.45.13,3.53.01,3.22,1.07-.11.36-.73.09-.92.13-.24.04-.51.25-.87.3-1.73.22-3.47.15-5.19-.11l.49.56c-.04.39-3.14.34-3.61.31-1.9-.12-4.74-.66-5.69-2.48-.43.49-2.23,1.99-1.65.37.29-.8.9-1.39,1.15-2.15-.82-4.44-1.54-8.9-2.36-13.34-.22-1.21-.93-3.27-.82-4.37.18-1.83,2.75-2.74,3.79-4.08-1.39-.64-2.85-1.13-4.24-1.77-9.4-4.32-16.71-11.93-25.66-16.99-3.08-1.74-6.31-3.06-9.55-4.45-.69-.53.43-.69.84-.72,1.24-.11,2.61-.08,3.85-.13l-3.56-1.91-.11-.44c.15-.02.29-.09.44-.11,2.45-.31,5.89.44,8.43.36,4.03-.02,8.1.35,12.12,0,7.03-.62,13.7-3.13,20.6-4.41,5.56-1.03,14.13-2.07,19.24.64.99.53,3.18,2.41,3.99,2.53,1.39.2,4.47-1.2,6.23-1.35,4.97-.4,9.57,2.62,10.72,7.59.53,2.27.4,3.11,2,5.03,3.22,3.85,7.88,5.89,10.76,10.65.36.59.86,1.26.81,1.97ZM75.03,8.62c-2.25.38-2.25,4.05-.02,4.41,3.65.59,3.59-5.02.02-4.41Z"/>
  </g>
</svg>