<?xml version="1.0" encoding="UTF-8"?>
<svg xmlns="http://www.w3.org/2000/svg" viewBox="0 0 437 106" preserveAspectRatio="xMidYMid meet">
  <!-- Beach Bird Icon -->
  <path fill="#e6b84c" d="M266.95,28.13l-.66-.14c-3.43-2.81-7.06-6.42-11.1-8.33-6.25-2.96-7.53,1.03-10.95,4.89-3.77,4.24-7.73,7.05-13.26,8.5-4.34,1.14-8.68,1.05-13.1.56l-1.59,2.66c.29,2.53,2.37,4.39,4.01,6.16,3.68,3.95,7.73,8.32,12.46,10.91,1.46.01,2.93.08,4.38.03.58-.02,1.39-.27,1.94-.25.28.01,1.84.45,1.43.86l-.37.12c1.11-.03,2.26.02,3.3.44.32.13,1.08.4.8.8l-1.27-.11c-.07.31-.15.33-.44.36-1.95.25-5.03-.31-7.1-.38-.75-.03-1.52.03-2.27,0-.03.18.21.16.34.21.76.26,3.57.73,3.76,1.52-.07.53-.83.12-1.11.14-.18.01-.33.21-.6.24-1.72.2-4.7-1.11-6-2.23-.65-.56-1.45-1.4-1.9-2.1l-.25.07c-.06.38-.85,1.63-1.28,1.16-.12-.13.34-1.75.42-2.04,0-.27-.52-.86-.73-1.11-2.5-3.12-6.23-7.07-9.18-9.78-.79-.72-1.94-1.45-2.64-2.16-1.86-1.88.99-4.09,1.41-6.06l-2.93-.56c-.46.15-2.58,1.88-2.76,2.29-.14.32-.03.77-.09,1.14-.09.52-.5.98-.62,1.47-.24,1,.16,3.69.3,4.85.36,2.98.92,6.53,1.71,9.41.22.8.73,2.71,1.41,3.15.78.5,3.53.44,4.52.39,1.41-.07,3.81-.72,5.04-.15.19.09.32.32.49.37.45.13,3.53.01,3.22,1.07-.11.36-.73.09-.92.13-.24.04-.51.25-.87.3-1.73.22-3.47.15-5.19-.11l.49.56c-.04.39-3.14.34-3.61.31-1.9-.12-4.74-.66-5.69-2.48-.43.49-2.23,1.99-1.65.37.29-.8.9-1.39,1.15-2.15-.82-4.44-1.54-8.9-2.36-13.34-.22-1.21-.93-3.27-.82-4.37.18-1.83,2.75-2.74,3.79-4.08-1.39-.64-2.85-1.13-4.24-1.77-9.4-4.32-16.71-11.93-25.66-16.99-3.08-1.74-6.31-3.06-9.55-4.45-.69-.53.43-.69.84-.72,1.24-.11,2.61-.08,3.85-.13l-3.56-1.91-.11-.44c.15-.02.29-.09.44-.11,2.45-.31,5.89.44,8.43.36,4.03-.02,8.1.35,12.12,0,7.03-.62,13.7-3.13,20.6-4.41,5.56-1.03,14.13-2.07,19.24.64.99.53,3.18,2.41,3.99,2.53,1.39.2,4.47-1.2,6.23-1.35,4.97-.4,9.57,2.62,10.72,7.59.53,2.27.4,3.11,2,5.03,3.22,3.85,7.88,5.89,10.76,10.65.36.59.86,1.26.81,1.97ZM245.38,8.62c-2.25.38-2.25,4.05-.02,4.41,3.65.59,3.59-5.02.02-4.41Z"/>
  
  <!-- Text as paths for consistent rendering -->
  <g fill="#47a7eb" transform="translate(0, 65)">
    <!-- Beach -->
    <path d="M0,28.5V0h13.8c3.9,0,6.9,0.9,9,2.6s3.1,4.1,3.1,7.2c0,1.8-0.4,3.3-1.3,4.6s-2,2.2-3.5,2.8c1.8,0.4,3.2,1.3,4.2,2.7s1.5,3.1,1.5,5.1c0,3.3-1.1,5.8-3.2,7.6s-5.2,2.7-9.2,2.7H0V28.5z M6.4,13.3h5.8c1.7,0,3-0.3,3.9-1s1.3-1.7,1.3-3c0-1.5-0.4-2.5-1.3-3.2s-2.2-1-4-1H6.4V13.3z M6.4,23.8h6.5c1.8,0,3.1-0.4,4-1.1s1.4-1.8,1.4-3.3c0-1.4-0.5-2.5-1.4-3.2s-2.3-1.1-4.1-1.1H6.4V23.8z"/>
    <path d="M43.5,28.5c-0.2-0.7-0.4-1.5-0.5-2.4c-1.5,1.9-3.5,2.8-6.1,2.8c-2.2,0-4.1-0.6-5.5-1.9s-2.2-3-2.2-5c0-2.5,0.9-4.4,2.8-5.7s4.5-2,7.9-2h3.1v-1.5c0-1.2-0.3-2.1-0.9-2.8s-1.5-1-2.8-1c-1.1,0-2,0.3-2.7,0.8s-1,1.2-1,2h-6c0-1.3,0.4-2.5,1.2-3.6s1.9-2,3.3-2.7s3-1,4.8-1c2.8,0,5,0.7,6.6,2.1s2.4,3.4,2.5,6v10.1c0,2.1,0.3,3.6,0.8,4.5v0.3H43.5z M38.1,24.1c1,0,1.9-0.2,2.7-0.7s1.4-1.1,1.7-1.8v-4h-2.7c-1.9,0-3.3,0.3-4.2,1s-1.3,1.6-1.3,2.7c0,0.9,0.3,1.6,0.9,2.1S37,24.1,38.1,24.1z"/>
    <path d="M65.7,22.6c0-0.9-0.4-1.6-1.3-2.1s-2.2-0.9-4-1.3c-1.8-0.3-3.2-0.7-4.3-1.2c-2.9-1.2-4.3-3.1-4.3-5.7c0-2.1,0.9-3.9,2.6-5.3s4-2.1,6.8-2.1c2.9,0,5.3,0.7,7,2.1s2.6,3.3,2.6,5.6h-6c0-1-0.3-1.8-0.9-2.4s-1.5-0.9-2.7-0.9c-1,0-1.8,0.2-2.4,0.7s-0.9,1.1-0.9,1.8c0,0.7,0.3,1.3,1,1.7s1.9,0.8,3.5,1.1c1.6,0.3,2.9,0.7,4,1.1c3.3,1.2,5,3.2,5,6c0,2.2-0.9,3.9-2.8,5.2s-4.3,1.9-7.2,1.9c-2,0-3.8-0.4-5.4-1.1s-2.8-1.7-3.7-3s-1.3-2.6-1.3-4.1h5.7c0.1,1.2,0.5,2.1,1.3,2.7s1.8,0.9,3.1,0.9c1.3,0,2.2-0.2,2.9-0.7S65.7,23.4,65.7,22.6z"/>
    <path d="M88.5,25.8c-1.5,2-3.7,3-6.6,3c-2.6,0-4.6-0.8-5.9-2.3s-2-3.7-2-6.6V5.4h6v14.3c0,2.4,1.1,3.6,3.4,3.6c2.2,0,3.7-0.8,4.5-2.4V5.4h6v23.1h-5.6L88.5,25.8z"/>
    <path d="M110.7,14.1c-0.7-0.1-1.3-0.2-1.9-0.2c-2.1,0-3.5,0.7-4.2,2.2v12.4h-6V5.4h5.7l0.2,2.8c1.1-2.2,2.7-3.2,4.8-3.2c0.6,0,1.2,0.1,1.6,0.2L110.7,14.1z"/>
    <path d="M127.2,28.5c-0.2-0.4-0.4-1-0.5-1.9c-1.4,1.5-3.2,2.3-5.5,2.3c-2.1,0-3.9-0.6-5.3-1.8s-2.1-2.7-2.1-4.6c0-2.3,0.9-4,2.6-5.2s4.1-1.8,7.1-1.8h2.8v-1.3c0-1-0.3-1.8-0.8-2.4s-1.3-0.9-2.4-0.9c-0.9,0-1.7,0.2-2.3,0.7s-0.9,1-0.9,1.7h-6c0-1.1,0.4-2.2,1.1-3.2s1.7-1.8,3-2.4s2.7-0.9,4.3-0.9c2.5,0,4.5,0.6,5.9,1.9s2.2,3.1,2.2,5.4v10.4c0,2,0.3,3.5,0.8,4.6v0.3H127.2z M122.2,24.3c0.8,0,1.6-0.2,2.3-0.6s1.2-0.9,1.5-1.5v-4.1h-2.3c-3.2,0-4.8,0.9-4.8,2.8c0,0.8,0.3,1.5,0.8,2S121.2,24.3,122.2,24.3z"/>
    
    <!-- Bird (keeping spacing consistent) -->
    <path d="M160,28.5V0h13.8c3.9,0,6.9,0.9,9,2.6s3.1,4.1,3.1,7.2c0,1.8-0.4,3.3-1.3,4.6s-2,2.2-3.5,2.8c1.8,0.4,3.2,1.3,4.2,2.7s1.5,3.1,1.5,5.1c0,3.3-1.1,5.8-3.2,7.6s-5.2,2.7-9.2,2.7H160V28.5z M166.4,13.3h5.8c1.7,0,3-0.3,3.9-1s1.3-1.7,1.3-3c0-1.5-0.4-2.5-1.3-3.2s-2.2-1-4-1h-5.7V13.3z M166.4,23.8h6.5c1.8,0,3.1-0.4,4-1.1s1.4-1.8,1.4-3.3c0-1.4-0.5-2.5-1.4-3.2s-2.3-1.1-4.1-1.1h-6.4V23.8z"/>
    <path d="M193.2,28.5V5.4h6v23.1H193.2z M193.2,0h6v4.2h-6V0z"/>
    <path d="M213.8,14.1c-0.5-0.1-1.1-0.1-1.6-0.1c-1.8,0-3,0.6-3.6,1.9v12.6h-6V5.4h5.8l0.1,2.6c0.9-2,2.3-3,4.1-3c0.5,0,1,0.1,1.3,0.2L213.8,14.1z"/>
    <path d="M234.2,28.5c-0.2-0.4-0.3-0.9-0.4-1.6c-1.2,1.3-2.8,1.9-4.8,1.9c-2,0-3.6-0.6-4.9-1.7s-1.9-2.6-1.9-4.3c0-2.1,0.8-3.8,2.4-4.9s3.8-1.7,6.6-1.7h2.6v-1.2c0-0.9-0.3-1.7-0.8-2.2s-1.2-0.8-2.2-0.8c-0.9,0-1.6,0.2-2.1,0.6s-0.8,0.9-0.8,1.6h-5.9c0-1,0.3-2,1-2.9s1.6-1.7,2.8-2.2s2.5-0.8,4-0.8c2.3,0,4.2,0.6,5.5,1.8s2,2.9,2.1,5v9.7c0,1.8,0.2,3.3,0.7,4.3v0.3H234.2z M229.6,24.5c0.8,0,1.5-0.2,2.2-0.5s1.1-0.8,1.4-1.4v-3.9h-2.1c-1.5,0-2.7,0.3-3.5,0.8s-1.2,1.3-1.2,2.3c0,0.8,0.3,1.4,0.8,1.9S228.7,24.5,229.6,24.5z"/>
    
    <!-- Studios -->
    <path d="M268,22.6c0-0.9-0.4-1.6-1.3-2.1s-2.2-0.9-4-1.3c-1.8-0.3-3.2-0.7-4.3-1.2c-2.9-1.2-4.3-3.1-4.3-5.7c0-2.1,0.9-3.9,2.6-5.3s4-2.1,6.8-2.1c2.9,0,5.3,0.7,7,2.1s2.6,3.3,2.6,5.6h-6c0-1-0.3-1.8-0.9-2.4s-1.5-0.9-2.7-0.9c-1,0-1.8,0.2-2.4,0.7s-0.9,1.1-0.9,1.8c0,0.7,0.3,1.3,1,1.7s1.9,0.8,3.5,1.1c1.6,0.3,2.9,0.7,4,1.1c3.3,1.2,5,3.2,5,6c0,2.2-0.9,3.9-2.8,5.2s-4.3,1.9-7.2,1.9c-2,0-3.8-0.4-5.4-1.1s-2.8-1.7-3.7-3s-1.3-2.6-1.3-4.1h5.7c0.1,1.2,0.5,2.1,1.3,2.7s1.8,0.9,3.1,0.9c1.3,0,2.2-0.2,2.9-0.7S268,23.4,268,22.6z"/>
    <path d="M283.2,2.7v2.7h2.1v4.1h-2.1v12.6c0,0.5,0.1,0.8,0.3,1s0.5,0.3,1,0.3c0.3,0,0.6,0,1-0.1v4.3c-0.8,0.2-1.6,0.4-2.5,0.4c-1.5,0-2.6-0.4-3.3-1.3s-1.1-2.1-1.1-3.7V9.5h-2v-4.1h2V2.7H283.2z"/>
    <path d="M301.4,25.8c-1.5,2-3.7,3-6.6,3c-2.6,0-4.6-0.8-5.9-2.3s-2-3.7-2-6.6V5.4h6v14.3c0,2.4,1.1,3.6,3.4,3.6c2.2,0,3.7-0.8,4.5-2.4V5.4h6v23.1h-5.6L301.4,25.8z"/>
    <path d="M328.2,28.5c-0.2-0.4-0.3-0.9-0.4-1.6c-1.2,1.3-2.8,1.9-4.8,1.9c-2,0-3.6-0.6-4.9-1.7s-1.9-2.6-1.9-4.3c0-2.1,0.8-3.8,2.4-4.9s3.8-1.7,6.6-1.7h2.6v-1.2c0-0.9-0.3-1.7-0.8-2.2s-1.2-0.8-2.2-0.8c-0.9,0-1.6,0.2-2.1,0.6s-0.8,0.9-0.8,1.6h-5.9c0-1,0.3-2,1-2.9s1.6-1.7,2.8-2.2s2.5-0.8,4-0.8c2.3,0,4.2,0.6,5.5,1.8s2,2.9,2.1,5v9.7c0,1.8,0.2,3.3,0.7,4.3v0.3H328.2z M323.6,24.5c0.8,0,1.5-0.2,2.2-0.5s1.1-0.8,1.4-1.4v-3.9h-2.1c-1.5,0-2.7,0.3-3.5,0.8s-1.2,1.3-1.2,2.3c0,0.8,0.3,1.4,0.8,1.9S322.7,24.5,323.6,24.5z"/>
    <path d="M338.2,28.5V5.4h6v23.1H338.2z M338.2,0h6v4.2h-6V0z"/>
    <path d="M360.5,28.9c-3.5,0-6.3-1.1-8.5-3.4s-3.3-5.3-3.3-9.1v-0.7c0-2.5,0.5-4.8,1.5-6.7s2.3-3.5,4.1-4.6s3.7-1.6,5.8-1.6c3.3,0,5.9,1.1,7.7,3.2s2.7,5.2,2.7,9.1v2.5h-15.8c0.1,1.7,0.7,3,1.7,4s2.3,1.5,3.9,1.5c2.4,0,4.3-0.9,5.7-2.6l2.7,3c-1,1.4-2.3,2.5-3.9,3.3S363,28.9,360.5,28.9z M360.1,8.5c-1.3,0-2.3,0.4-3.1,1.3s-1.3,2.1-1.5,3.7h9.5v-0.5c0-1.5-0.4-2.6-1.2-3.4S361.5,8.5,360.1,8.5z"/>
    <path d="M384.8,22.8c0-0.7-0.3-1.3-1-1.7s-1.8-0.8-3.3-1.1c-1.5-0.3-2.7-0.6-3.6-1c-2.4-1-3.6-2.6-3.6-4.7c0-1.7,0.7-3.2,2.2-4.4s3.3-1.8,5.7-1.8c2.4,0,4.4,0.6,5.9,1.8s2.2,2.7,2.2,4.6h-5c0-0.8-0.3-1.5-0.8-2s-1.3-0.7-2.3-0.7c-0.8,0-1.5,0.2-2,0.6s-0.7,0.9-0.7,1.5c0,0.6,0.3,1,0.8,1.4s1.6,0.7,2.9,0.9c1.3,0.3,2.4,0.6,3.3,0.9c2.8,1,4.2,2.7,4.2,5c0,1.8-0.8,3.2-2.3,4.3s-3.6,1.6-6.1,1.6c-1.7,0-3.2-0.3-4.5-0.9s-2.4-1.4-3.1-2.5s-1.1-2.2-1.1-3.4h4.8c0.1,1,0.4,1.7,1.1,2.2s1.5,0.8,2.6,0.8c1.1,0,1.9-0.2,2.4-0.6S384.8,23.5,384.8,22.8z"/>
  </g>
</svg>